<svg width="106" height="106" xmlns="http://www.w3.org/2000/svg" xmlns:xlink="http://www.w3.org/1999/xlink" xml:space="preserve" overflow="hidden"><g transform="translate(-592 -312)"><path d="M663.771 400.687C663.193 400.687 662.638 400.461 662.225 400.057 657.832 395.876 653.998 391.144 650.819 385.979 647.641 380.588 646.01 374.426 646.104 368.169 646.181 366.952 647.23 366.027 648.447 366.104 648.45 366.104 648.453 366.104 648.456 366.104 649.673 366.181 650.598 367.23 650.521 368.447 650.521 368.45 650.521 368.453 650.521 368.456 650.5 373.837 651.922 379.126 654.639 383.771 657.606 388.588 661.184 393.001 665.284 396.899 666.156 397.752 666.172 399.15 665.319 400.022 664.911 400.44 664.354 400.678 663.771 400.687Z"/><path d="M658.084 405.976C657.501 405.976 656.942 405.746 656.527 405.335 651.755 400.729 647.589 395.535 644.128 389.877 640.169 383.152 638.176 375.451 638.375 367.65 638.728 362.173 643.454 358.019 648.931 358.372 648.946 358.373 648.96 358.374 648.975 358.375 654.432 358.73 658.578 363.428 658.25 368.887 658.327 372.77 659.391 376.57 661.342 379.928 663.713 383.775 666.542 387.319 669.766 390.484 670.626 391.35 670.621 392.749 669.755 393.609 668.89 394.469 667.49 394.464 666.631 393.598 663.126 390.174 660.065 386.324 657.521 382.137 655.127 378.054 653.854 373.41 653.833 368.677 654.038 365.635 651.738 363.002 648.696 362.798 647.234 362.699 645.794 363.186 644.691 364.15 643.577 365.112 642.893 366.479 642.792 367.948 642.634 374.866 644.416 381.69 647.937 387.646 651.205 392.968 655.134 397.854 659.63 402.188 660.493 403.05 660.494 404.448 659.632 405.311 659.631 405.312 659.631 405.313 659.63 405.313 659.222 405.729 658.667 405.967 658.084 405.976Z"/><path d="M636.63 410.569C636.378 410.567 636.128 410.523 635.891 410.436 634.742 410.027 634.143 408.763 634.553 407.614 634.553 407.613 634.554 407.611 634.555 407.61 636.222 402.994 639.645 400.124 643.487 400.124 647.33 400.124 650.609 402.895 652.321 407.356 652.754 408.496 652.18 409.771 651.04 410.204 651.04 410.204 651.04 410.204 651.04 410.205 649.9 410.638 648.624 410.064 648.191 408.924 648.191 408.924 648.191 408.924 648.191 408.924 647.164 406.219 645.364 404.507 643.498 404.507 641.632 404.507 639.711 406.34 638.717 409.167 638.382 410.023 637.55 410.582 636.63 410.569Z"/><path d="M628.89 406.395C628.301 406.384 627.74 406.137 627.333 405.711 626.458 404.861 626.438 403.463 627.287 402.588 627.302 402.572 627.318 402.557 627.333 402.542 630.646 399.417 635.692 392.858 632.744 384.014 630.957 378.64 630.244 372.967 630.646 367.319L630.646 367.131C631.275 357.394 639.678 350.011 649.415 350.641 649.441 350.642 649.468 350.644 649.494 350.646 659.103 351.313 666.422 359.53 665.979 369.152 665.921 370.371 664.886 371.313 663.666 371.255 662.446 371.197 661.505 370.162 661.562 368.942 661.98 361.624 656.387 355.353 649.069 354.936 641.751 354.518 635.48 360.111 635.062 367.429L635.062 367.628C634.707 372.718 635.356 377.827 636.973 382.667 640.694 393.841 634.466 401.956 630.414 405.799 630.001 406.186 629.456 406.399 628.89 406.395ZM671.953 387.017C671.36 387 670.799 386.745 670.396 386.31 668.045 383.854 665.964 381.151 664.19 378.25 663.536 377.221 663.84 375.856 664.869 375.202 665.899 374.547 667.263 374.851 667.918 375.881 667.951 375.933 667.982 375.987 668.011 376.042 669.608 378.666 671.485 381.109 673.609 383.329 674.438 384.223 674.386 385.621 673.492 386.45 673.49 386.451 673.489 386.453 673.487 386.454 673.075 386.823 672.539 387.024 671.986 387.017Z"/><path d="M620.973 399.163C620.341 399.165 619.738 398.896 619.317 398.423 618.506 397.513 618.586 396.117 619.497 395.305 619.5 395.303 619.502 395.301 619.505 395.298 622.232 392.88 625.291 388.784 624.429 382.965 624.308 382.17 624.175 381.364 624.054 380.569 623.159 376.025 622.789 371.394 622.95 366.767L622.95 366.612C623.887 352.618 635.992 342.033 649.986 342.97 649.995 342.971 650.004 342.971 650.013 342.972 662.921 343.833 673.521 354.444 673.708 366.612 673.788 368.827 674.788 370.908 676.469 372.354 677.344 373.197 677.373 374.588 676.535 375.467 675.695 376.352 674.297 376.387 673.413 375.547 673.412 375.547 673.411 375.546 673.41 375.545 670.889 373.286 669.401 370.095 669.292 366.711 669.181 356.774 660.458 348.15 649.77 347.433 638.213 346.6 628.17 355.294 627.338 366.85 627.336 366.87 627.335 366.89 627.333 366.91L627.333 367.065C627.211 371.366 627.582 375.667 628.438 379.884 628.57 380.69 628.691 381.496 628.813 382.313 630.039 390.495 625.357 396.027 622.453 398.6 622.046 398.964 621.519 399.165 620.973 399.163Z"/><path d="M673.543 352.203C672.842 352.204 672.182 351.872 671.765 351.308 666.654 344.445 658.775 340.186 650.234 339.67 642.954 339.169 635.757 341.468 630.116 346.097 629.235 346.94 627.837 346.91 626.993 346.029 626.15 345.149 626.18 343.751 627.061 342.907 627.146 342.826 627.237 342.751 627.333 342.685 633.83 337.339 642.127 334.684 650.521 335.265 660.359 335.869 669.431 340.777 675.32 348.68 676.023 349.669 675.796 351.04 674.812 351.75 674.447 352.03 674.003 352.188 673.543 352.203Z"/><path d="M612.537 355.857C612.253 355.856 611.972 355.8 611.709 355.692 610.601 355.233 610.062 353.973 610.495 352.854 617.17 336.584 633.492 326.397 651.04 327.547 655.664 327.866 660.202 328.955 664.466 330.771 665.607 331.203 666.181 332.478 665.749 333.618 665.317 334.759 664.042 335.333 662.901 334.901 662.848 334.881 662.796 334.858 662.744 334.834 658.932 333.229 654.88 332.27 650.753 331.996 635.104 330.937 620.533 340.01 614.58 354.521 614.23 355.337 613.425 355.863 612.537 355.857Z"/><path d="M624.164 330.914C622.945 330.922 621.95 329.94 621.942 328.72 621.937 327.943 622.341 327.221 623.005 326.818 630.5 322.241 639.1 319.79 647.882 319.729 649.085 319.729 650.333 319.729 651.559 319.84 652.778 319.922 653.7 320.977 653.618 322.197 653.536 323.417 652.48 324.339 651.261 324.256 650.156 324.179 649.052 324.146 647.948 324.157 639.969 324.21 632.155 326.435 625.346 330.594 624.993 330.818 624.582 330.93 624.164 330.914Z"/><path d="M613.874 391.644C612.654 391.643 611.665 390.655 611.666 389.435 611.666 388.706 612.025 388.025 612.626 387.613 615.055 385.935 616.612 384.511 616.137 379.984 616.049 379.144 615.938 378.294 615.839 377.433 615.274 373.726 615.078 369.971 615.254 366.226L615.254 366.104C615.668 359.65 617.972 353.459 621.879 348.305 622.545 347.283 623.913 346.995 624.935 347.662 625.956 348.328 626.244 349.696 625.578 350.718 625.521 350.805 625.458 350.888 625.39 350.966 622.004 355.445 620.011 360.821 619.659 366.424L619.659 366.535C619.515 370.012 619.703 373.495 620.222 376.936 620.333 377.808 620.432 378.681 620.521 379.542 621.26 386.443 618.125 389.214 615.121 391.268 614.753 391.516 614.318 391.647 613.874 391.644Z"/></g></svg>