<svg width="96" height="96" xmlns="http://www.w3.org/2000/svg" xmlns:xlink="http://www.w3.org/1999/xlink" xml:space="preserve" overflow="hidden"><g transform="translate(-592 -312)"><path d="M660 342.2C657.6 342.2 655.6 340.2 655.7 337.7 655.7 335.3 657.7 333.3 660.1 333.3 662.5 333.3 664.5 335.3 664.5 337.7 664.5 338.9 664 340 663.2 340.8 662.3 341.7 661.2 342.2 660 342.2ZM655.7 328.3C653.5 329.1 651.8 330.8 650.7 332.8 649.3 335.5 649.1 338.6 650.2 341.4L655 351.8 658.2 358.4C658.5 359.1 659.2 359.5 660 359.5 660.8 359.5 661.5 359.1 661.8 358.4L665 351.8 669.8 341.5C670.3 340.3 670.5 339 670.5 337.7 670.5 330.7 663.3 325.4 655.7 328.3Z"/><path d="M638 384.8 622 376.8 622 344.2 638 352.2 638 384.8ZM618 376.8 606 382.8 606 350.2 618 344.2 618 376.8ZM673.4 343.2 673.4 343.2 670.9 348.6 674 350.2 674 382.8 662 376.8 662 363.5 658 363.5 658 376.8 642 384.8 642 352.2 649.1 348.6 646.6 343.2 640 346.5 620 336.5 600 346.5 600 392.5 620 382.5 640 392.5 660 382.5 680 392.5 680 346.5 673.4 343.2Z"/></g></svg>